<?xml version="1.0" standalone="no"?>
<!DOCTYPE svg PUBLIC "-//W3C//DTD SVG 20010904//EN"
 "http://www.w3.org/TR/2001/REC-SVG-20010904/DTD/svg10.dtd">
<svg version="1.0" xmlns="http://www.w3.org/2000/svg"
 width="1280.000000pt" height="1280.000000pt" viewBox="0 0 1280.000000 1280.000000"
 preserveAspectRatio="xMidYMid meet">
<metadata>
Created by potrace 1.15, written by Peter Selinger 2001-2017
</metadata>
<g transform="translate(0.000000,1280.000000) scale(0.100000,-0.100000)"
fill="#000000" stroke="none">
<path d="M7057 10224 c-173 -31 -373 -122 -533 -242 -233 -175 -484 -482 -697
-850 l-65 -112 -37 42 c-77 86 -283 272 -397 359 -263 198 -529 326 -776 373
-445 84 -981 -76 -1387 -416 -576 -481 -802 -1206 -597 -1913 22 -77 92 -266
120 -326 2 -4 -55 -41 -126 -83 -379 -227 -722 -550 -919 -866 -253 -408 -314
-868 -172 -1302 90 -276 269 -458 529 -540 67 -20 95 -23 250 -23 160 0 184 2
285 29 122 31 265 86 383 145 l77 39 28 -67 c46 -106 134 -256 212 -360 122
-161 254 -274 408 -347 121 -57 184 -69 347 -68 128 0 155 4 235 28 226 68
465 214 711 433 88 78 99 85 108 69 246 -421 599 -693 1005 -776 442 -90 972
40 1456 358 441 289 799 717 999 1194 56 134 118 328 141 438 9 47 19 90 21
97 2 7 48 -20 113 -67 320 -229 696 -406 1002 -471 140 -31 411 -33 539 -6
359 78 594 288 671 602 46 184 25 450 -53 695 -85 265 -238 575 -430 869 -27
41 -45 77 -41 81 4 3 26 12 48 19 168 56 388 183 511 295 234 213 336 507 290
841 -81 581 -289 937 -648 1105 -388 182 -982 134 -1806 -145 -107 -36 -197
-65 -201 -65 -4 0 -44 48 -88 108 -289 384 -657 676 -993 785 -167 55 -364 70
-523 41z"/>
</g>
</svg>
